<?xml version="1.0" encoding="UTF-8" standalone="no"?>
<!DOCTYPE svg PUBLIC "-//W3C//DTD SVG 1.1//EN" "http://www.w3.org/Graphics/SVG/1.1/DTD/svg11.dtd">
<svg width="100%" height="100%" viewBox="0 0 3300 2550" version="1.1" xmlns="http://www.w3.org/2000/svg" xmlns:xlink="http://www.w3.org/1999/xlink" xml:space="preserve" style="fill-rule:evenodd;clip-rule:evenodd;stroke-linecap:round;stroke-linejoin:round;stroke-miterlimit:1.5;">
    <g transform="matrix(1,0,0,1,29.2566,55.4512)">
        <g>
            <g transform="matrix(1.66369,0,0,1.13381,-1464.35,512.692)">
                <rect x="2188.32" y="202.662" width="445.948" height="946.412" style="fill:rgb(242,242,242);"/>
            </g>
            <g transform="matrix(1.5382,0,0,1.13381,-2602.5,512.692)">
                <rect x="2188.32" y="202.662" width="445.948" height="946.412" style="fill:rgb(242,242,242);"/>
            </g>
            <g transform="matrix(0.919724,0,0,1.13381,-548.116,512.692)">
                <rect x="2188.32" y="202.662" width="445.948" height="946.412" style="fill:rgb(242,242,242);"/>
            </g>
            <g transform="matrix(0.609138,0,0,1.13381,556.693,512.692)">
                <rect x="2188.32" y="202.662" width="445.948" height="946.412" style="fill:rgb(242,242,242);"/>
            </g>
            <g transform="matrix(1.66369,0,0,0.727447,-1464.35,613.234)">
                <rect x="2188.32" y="75.88" width="445.948" height="101.782" style="fill:rgb(217,217,217);"/>
            </g>
            <g transform="matrix(1.5382,0,0,0.727447,-2602.5,613.234)">
                <rect x="2188.32" y="75.88" width="445.948" height="101.782" style="fill:rgb(217,217,217);"/>
            </g>
            <g transform="matrix(0.919724,0,0,0.727447,-548.116,613.234)">
                <rect x="2188.32" y="75.88" width="445.948" height="101.782" style="fill:rgb(217,217,217);"/>
            </g>
            <g transform="matrix(0.609138,0,0,0.727447,556.693,613.234)">
                <rect x="2188.32" y="75.88" width="445.948" height="101.782" style="fill:rgb(217,217,217);"/>
            </g>
            <g transform="matrix(3.41283e-17,-0.557357,0.230703,1.41265e-17,1076.46,2363.04)">
                <path d="M1135.22,1657.75L1135.22,1641.5L1509.52,1641.5L1499.43,1617.11L1507.94,1617.11L1521.4,1649.62L1507.94,1682.13L1499.43,1682.13L1509.52,1657.75L1135.22,1657.75Z"/>
            </g>
            <g transform="matrix(3.41283e-17,-0.557357,0.230703,1.41265e-17,2081.05,2363.04)">
                <path d="M1135.22,1657.75L1135.22,1641.5L1509.52,1641.5L1499.43,1617.11L1507.94,1617.11L1521.4,1649.62L1507.94,1682.13L1499.43,1682.13L1509.52,1657.75L1135.22,1657.75Z"/>
            </g>
            <g transform="matrix(0.866915,0,0,0.866915,787.869,369.716)">
                <text x="249.326px" y="404.445px" style="font-family:'OpenSans-Bold', 'Open Sans', sans-serif;font-weight:700;font-size:48.063px;fill:rgb(128,128,128);">CLEAN UP</text>
            </g>
            <g transform="matrix(0.866915,0,0,0.866915,1320.26,369.716)">
                <text x="313.594px" y="404.445px" style="font-family:'OpenSans-Bold', 'Open Sans', sans-serif;font-weight:700;font-size:48.063px;fill:rgb(128,128,128);">DESIGN</text>
            </g>
            <g transform="matrix(0.866915,0,0,0.866915,1676.16,369.716)">
                <text x="303.55px" y="404.445px" style="font-family:'OpenSans-Bold', 'Open Sans', sans-serif;font-weight:700;font-size:48.063px;fill:rgb(128,128,128);">TESTING</text>
            </g>
            <g transform="matrix(0.866915,0,0,0.866915,2232,369.716)">
                <text x="298.601px" y="404.445px" style="font-family:'OpenSans-Bold', 'Open Sans', sans-serif;font-weight:700;font-size:48.063px;fill:rgb(128,128,128);">FIXES</text>
            </g>
            <g transform="matrix(0.866915,0,0,0.866915,1226.36,1380.15)">
                <text x="308.928px" y="404.445px" style="font-family:'OpenSans-Bold', 'Open Sans', sans-serif;font-weight:700;font-size:38.451px;">Split theme into two skins</text>
            </g>
            <g transform="matrix(0.866915,0,0,0.866915,640.215,1037.18)">
                <text x="308.928px" y="404.445px" style="font-family:'OpenSans', 'Open Sans', sans-serif;font-size:38.451px;">Gulpify</text>
            </g>
            <g transform="matrix(0.866915,0,0,0.866915,878.388,1003.19)">
                <text x="330.931px" y="404.445px" style="font-family:'OpenSans', 'Open Sans', sans-serif;font-size:38.451px;">Styles</text>
                <text x="332.509px" y="452.508px" style="font-family:'OpenSans', 'Open Sans', sans-serif;font-size:38.451px;">Clean</text>
            </g>
            <g transform="matrix(0.866915,0,0,0.866915,878.811,1378.62)">
                <text x="345.444px" y="404.445px" style="font-family:'OpenSans', 'Open Sans', sans-serif;font-size:38.451px;">PHP</text>
                <text x="332.509px" y="452.508px" style="font-family:'OpenSans', 'Open Sans', sans-serif;font-size:38.451px;">Clean</text>
            </g>
            <g transform="matrix(0.866915,0,0,0.866915,2229.02,1380.15)">
                <text x="308.928px" y="404.445px" style="font-family:'OpenSans-Bold', 'Open Sans', sans-serif;font-weight:700;font-size:38.451px;">Remo<tspan x="417.821px 439.693px " y="404.445px 404.445px ">ve</tspan> legacy skin</text>
            </g>
        </g>
        <g transform="matrix(0.866915,0,0,0.866915,177.939,691.802)">
            <path d="M536.812,424.516L2115.74,424.516" style="fill:none;stroke:rgb(128,128,128);stroke-width:10.09px;stroke-dasharray:0,30.28,0,0;"/>
        </g>
        <g transform="matrix(0.866915,0,0,0.866915,1705.83,691.802)">
            <path d="M536.812,424.516L1302.58,424.516" style="fill:none;stroke:rgb(128,128,128);stroke-width:10.09px;stroke-dasharray:0,30.28,0,0;"/>
        </g>
        <g transform="matrix(0.866915,0,0,0.866915,2452.59,691.802)">
            <path d="M551.3,424.516L651.126,425.016" style="fill:none;stroke:rgb(128,128,128);stroke-width:10.09px;stroke-dasharray:0,30.28,0,0;"/>
        </g>
        <g transform="matrix(0.866915,0,0,0.866915,177.939,1085)">
            <path d="M536.812,424.516L906.251,424.516" style="fill:none;stroke:rgb(128,128,128);stroke-width:10px;stroke-dasharray:0,30,0,0;"/>
        </g>
        <g transform="matrix(0.866915,0,0,0.866915,1287.59,1085)">
            <path d="M536.812,424.516L1183.54,424.516" style="fill:none;stroke:rgb(128,128,128);stroke-width:10px;stroke-dasharray:0,30,0,0;"/>
        </g>
        <g transform="matrix(0.866915,0,0,0.866915,2079.23,1085)">
            <path d="M536.812,424.516L1080.02,424.516" style="fill:none;stroke:rgb(128,128,128);stroke-width:10px;stroke-dasharray:0,30,0,0;"/>
        </g>
        <g transform="matrix(0.866915,0,0,0.866915,177.939,1281.6)">
            <path d="M536.812,424.516L3273.19,424.516" style="fill:none;stroke:rgb(128,128,128);stroke-width:10px;stroke-dasharray:0,30,0,0;"/>
        </g>
        <g transform="matrix(-0.866915,0,0,0.409424,4622.63,734.657)">
            <path d="M1965.83,795.259L1965.83,366.945" style="fill:none;stroke:rgb(211,78,170);stroke-width:12.79px;"/>
        </g>
        <g id="Master" transform="matrix(0.78547,0,0,0.866915,326.02,998.312)">
            <path d="M403.947,297.733L1819.12,297.733C1866.88,297.733 1899.46,286.655 1940.77,286.733" style="fill:none;stroke:rgb(51,51,51);stroke-width:10.48px;"/>
        </g>
        <g transform="matrix(0.866915,0,0,0.866915,177.939,566.783)">
            <path d="M2925.25,795.76L3273.19,795.76" style="fill:none;stroke:rgb(211,78,170);stroke-width:10px;"/>
        </g>
        <g id="Production" transform="matrix(0.854331,0,0,0.866915,298.204,626.783)">
            <path d="M403.947,297.733L2192.36,297.593" style="fill:none;stroke:rgb(51,51,51);stroke-width:10.07px;"/>
        </g>
        <g transform="matrix(0.866915,0,0,0.866915,177.939,566.783)">
            <path d="M3273.19,366.945L3161.74,366.945" style="fill:none;stroke:rgb(211,78,170);stroke-width:10px;"/>
        </g>
        <g id="Develop" transform="matrix(0.866915,0,0,0.866915,119.348,735.148)">
            <path d="M743.126,601.298C743.126,601.298 748.437,601.298 756.612,601.298C779.557,601.298 801.562,610.413 817.787,626.637C834.011,642.862 843.126,664.867 843.126,687.812C843.126,705.424 843.126,723.954 843.126,741.567C843.126,764.511 852.241,786.516 868.465,802.741C884.69,818.965 906.695,828.08 929.64,828.08C1116.83,828.08 1542.72,828.08 1542.72,828.08" style="fill:none;stroke:rgb(51,51,51);stroke-width:10px;"/>
        </g>
        <g id="Develop1" transform="matrix(0.866915,0,0,0.866915,351.863,931.723)">
            <path d="M743.126,601.298C743.126,601.298 748.437,601.298 756.612,601.298C779.557,601.298 801.562,610.413 817.787,626.637C834.011,642.862 843.126,664.867 843.126,687.812C843.126,705.424 843.126,723.954 843.126,741.567C843.126,764.511 852.241,786.516 868.465,802.741C884.69,818.965 906.695,828.08 929.64,828.08C942.896,828.08 952.273,828.08 952.273,828.08" style="fill:none;stroke:rgb(51,51,51);stroke-width:10px;"/>
        </g>
        <g id="Develop2" transform="matrix(-0.866915,0,0,0.866915,2067.96,931.748)">
            <path d="M743.126,601.298C743.126,601.298 748.437,601.298 756.612,601.298C779.557,601.298 801.562,610.413 817.787,626.637C834.011,642.862 843.126,664.867 843.126,687.812C843.126,705.424 843.126,723.954 843.126,741.567C843.126,764.511 852.241,786.516 868.465,802.741C884.69,818.965 906.695,828.08 929.64,828.08C942.896,828.08 952.273,828.08 952.273,828.08" style="fill:none;stroke:rgb(51,51,51);stroke-width:10px;"/>
        </g>
        <g transform="matrix(0.866915,0,0,0.866915,177.939,566.783)">
            <g id="Develop3" transform="matrix(1,0,0,1,-67.5857,183.712)">
                <path d="M1544.74,828.08C1544.74,828.08 1712.7,828.08 1813.17,828.08C1832.65,828.08 1851.33,820.342 1865.1,806.569C1878.88,792.795 1886.62,774.114 1886.62,754.636C1886.62,736.945 1886.62,717.766 1886.62,699.157C1886.62,673.203 1896.92,648.312 1915.28,629.96C1933.63,611.608 1958.52,601.298 1984.47,601.298C1992.05,601.298 1996.84,601.298 1996.84,601.298" style="fill:none;stroke:rgb(51,51,51);stroke-width:10px;"/>
            </g>
            <g id="Develop4" transform="matrix(1,0,0,1,-67.5857,205.212)">
                <path d="M1544.74,828.08C1544.74,828.08 1699.64,828.08 1807.37,828.08C1834.27,828.08 1860.08,817.393 1879.1,798.369C1898.12,779.345 1908.81,753.543 1908.81,726.639C1908.81,707.744 1908.81,688.402 1908.81,670.742C1908.81,632.389 1939.9,601.298 1978.26,601.298C1989.12,601.298 1996.84,601.298 1996.84,601.298" style="fill:none;stroke:rgb(211,78,170);stroke-width:10px;"/>
            </g>
        </g>
        <g transform="matrix(0.87388,0,0,0.866915,931.24,369.965)">
            <g id="Develop5" transform="matrix(1,0,0,1,-67.5857,183.712)">
                <path d="M1155.25,828.08L2057.44,828.08" style="fill:none;stroke:rgb(51,51,51);stroke-width:9.96px;"/>
            </g>
            <g id="Develop6" transform="matrix(1,0,0,1,-67.5857,205.212)">
                <path d="M1155.25,828.08L2057.44,828.08" style="fill:none;stroke:rgb(211,78,170);stroke-width:9.96px;"/>
            </g>
        </g>
        <g transform="matrix(-0.866915,0,0,0.866915,3585.51,566.783)">
            <g id="Develop7" transform="matrix(1,0,0,1,-67.5857,183.712)">
                <path d="M1365.1,828.08C1365.1,828.08 1424.21,828.08 1475.83,828.08C1517.53,828.08 1551.33,794.277 1551.33,752.579C1551.33,735.464 1551.33,717.047 1551.33,699.157C1551.33,673.203 1561.64,648.312 1579.99,629.96C1598.34,611.608 1623.23,601.298 1649.19,601.298C1656.76,601.298 1661.55,601.298 1661.55,601.298" style="fill:none;stroke:rgb(51,51,51);stroke-width:10px;"/>
            </g>
            <g id="Develop8" transform="matrix(1,0,0,-1,266.332,1407.81)">
                <path d="M1365.1,828.08C1365.1,828.08 1425.01,828.08 1477.1,828.08C1497.12,828.08 1516.33,820.126 1530.49,805.966C1544.65,791.807 1552.6,772.603 1552.6,752.579C1552.6,735.464 1552.6,717.047 1552.6,699.157C1552.6,673.203 1562.91,648.312 1581.26,629.96C1599.62,611.608 1624.51,601.298 1650.46,601.298C1658.04,601.298 1662.82,601.298 1662.82,601.298" style="fill:none;stroke:rgb(211,78,170);stroke-width:10px;"/>
            </g>
            <g id="Develop9" transform="matrix(1,0,0,1,-67.5857,205.212)">
                <path d="M1365.1,828.08C1365.1,828.08 1417.67,828.08 1470.02,828.08C1527.18,828.08 1573.52,781.738 1573.52,724.572C1573.52,706.337 1573.52,687.758 1573.52,670.742C1573.52,632.389 1604.62,601.298 1642.97,601.298C1653.83,601.298 1661.55,601.298 1661.55,601.298" style="fill:none;stroke:rgb(211,78,170);stroke-width:10px;"/>
            </g>
            <g id="Develop10" transform="matrix(1,0,0,-1,266.332,1386.31)">
                <path d="M1365.1,828.08C1365.1,828.08 1418.42,828.08 1471.29,828.08C1528.45,828.08 1574.8,781.738 1574.8,724.572C1574.8,706.337 1574.8,687.758 1574.8,670.742C1574.8,632.389 1605.89,601.298 1644.24,601.298C1655.1,601.298 1662.82,601.298 1662.82,601.298" style="fill:none;stroke:rgb(51,51,51);stroke-width:10px;"/>
            </g>
        </g>
        <g transform="matrix(0.764599,0,0,0.866915,1340.05,-1.56439)">
            <g id="Develop11" transform="matrix(1,0,0,1,-67.5857,183.712)">
                <path d="M1155.25,828.08L2130.74,828.08" style="fill:none;stroke:rgb(51,51,51);stroke-width:10.61px;"/>
            </g>
            <g id="Develop12" transform="matrix(1,0,0,1,-67.5857,205.212)">
                <path d="M1155.25,828.08L2130.74,828.08" style="fill:none;stroke:rgb(211,78,170);stroke-width:10.61px;"/>
            </g>
        </g>
        <g transform="matrix(5.30593e-17,-0.866524,0.866915,5.30832e-17,1285.22,2593.74)">
            <g id="Develop13" transform="matrix(1,0,0,1,-67.5857,183.712)">
                <path d="M1838.04,828.08L2039.66,828.08" style="fill:none;stroke:rgb(51,51,51);stroke-width:10px;"/>
            </g>
            <g id="Develop14" transform="matrix(1,0,0,1,-67.5857,205.212)">
                <path d="M1838.04,828.08L2039.66,828.08" style="fill:none;stroke:rgb(211,78,170);stroke-width:10px;"/>
            </g>
        </g>
        <g id="Develop15" transform="matrix(0.866915,0,0,0.866915,1624.1,735.148)">
            <path d="M1005.62,828.08C1005.62,828.08 1006.47,828.08 1008,828.08C1055.78,828.08 1094.51,789.347 1094.51,741.567C1094.51,727.082 1094.51,712.06 1094.51,697.599C1094.51,674.91 1103.53,653.149 1119.57,637.105C1135.61,621.061 1157.37,612.048 1180.06,612.048C1180.06,612.048 1180.07,612.048 1180.07,612.048" style="fill:none;stroke:rgb(211,78,170);stroke-width:10px;"/>
        </g>
        <g id="Develop16" transform="matrix(0.866915,0,0,0.866915,1787.89,538.547)">
            <path d="M1066.13,828.08C1066.13,828.08 1071.41,828.08 1079.54,828.08C1127.32,828.08 1166.06,789.347 1166.06,741.567C1166.06,723.596 1166.06,704.658 1166.06,686.687C1166.06,638.907 1204.79,600.173 1252.57,600.173C1260.74,600.173 1266.06,600.173 1266.06,600.173" style="fill:none;stroke:rgb(211,78,170);stroke-width:10px;"/>
        </g>
        <g transform="matrix(0.398366,0,0,0.398366,425.174,1054.66)">
            <circle cx="849.473" cy="506.469" r="81.607" style="fill:rgb(101,209,255);stroke:rgb(51,51,51);stroke-width:21.76px;"/>
        </g>
        <g transform="matrix(0.398366,0,0,0.398366,1543.32,1054.66)">
            <circle cx="849.473" cy="506.469" r="81.607" style="fill:rgb(101,209,255);stroke:rgb(51,51,51);stroke-width:21.76px;"/>
        </g>
        <g transform="matrix(0.398366,0,0,0.398366,1833.27,1054.66)">
            <circle cx="849.473" cy="506.469" r="81.607" style="fill:rgb(101,209,255);stroke:rgb(51,51,51);stroke-width:21.76px;"/>
        </g>
        <g transform="matrix(0.398366,0,0,0.398366,2341.22,1054.66)">
            <circle cx="849.473" cy="506.469" r="81.607" style="fill:rgb(101,209,255);stroke:rgb(51,51,51);stroke-width:21.76px;"/>
        </g>
        <g transform="matrix(0.398366,0,0,0.398366,1833.27,858.061)">
            <circle cx="849.473" cy="506.469" r="81.607" style="fill:rgb(156,235,150);stroke:rgb(51,51,51);stroke-width:21.76px;"/>
        </g>
        <g transform="matrix(0.398366,0,0,0.398366,2579.56,858.061)">
            <circle cx="849.473" cy="506.469" r="81.607" style="fill:rgb(156,235,150);stroke:rgb(51,51,51);stroke-width:21.76px;"/>
        </g>
        <g transform="matrix(0.398366,0,0,0.398366,2579.56,683.133)">
            <circle cx="849.473" cy="506.469" r="81.607" style="fill:rgb(204,204,204);stroke:rgb(51,51,51);stroke-width:21.76px;"/>
        </g>
        <g transform="matrix(0.398366,0,0,0.398366,1833.27,683.133)">
            <circle cx="849.473" cy="506.469" r="81.607" style="fill:rgb(204,204,204);stroke:rgb(51,51,51);stroke-width:21.76px;"/>
        </g>
        <g transform="matrix(0.398366,0,0,0.398366,2123.22,1251.26)">
            <circle cx="849.473" cy="506.469" r="81.607" style="fill:rgb(255,215,72);stroke:rgb(51,51,51);stroke-width:21.76px;"/>
        </g>
        <g transform="matrix(0.398366,0,0,0.398366,1118.79,1251.26)">
            <circle cx="849.473" cy="506.469" r="81.607" style="fill:rgb(255,215,72);stroke:rgb(51,51,51);stroke-width:21.76px;"/>
        </g>
        <g transform="matrix(0.398366,0,0,0.398366,625.18,1251.26)">
            <circle cx="849.473" cy="506.469" r="81.607" style="fill:rgb(255,215,72);stroke:rgb(51,51,51);stroke-width:21.76px;"/>
        </g>
        <g transform="matrix(0.398366,0,0,0.398366,871.511,1251.26)">
            <circle cx="849.473" cy="506.469" r="81.607" style="fill:rgb(255,215,72);stroke:rgb(51,51,51);stroke-width:21.76px;"/>
        </g>
        <g transform="matrix(0.398366,0,0,0.398366,871.511,1447.86)">
            <circle cx="849.473" cy="506.469" r="81.607" style="fill:rgb(255,138,105);stroke:rgb(51,51,51);stroke-width:21.76px;"/>
        </g>
        <g transform="matrix(0.866915,0,0,0.866915,125.615,552.877)">
            <text x="110.371px" y="404.445px" style="font-family:'OpenSans-Bold', 'Open Sans', sans-serif;font-weight:700;font-size:60px;">PRODUCTION</text>
        </g>
        <g transform="matrix(0.866915,0,0,0.866915,125.615,727.805)">
            <text x="255.215px" y="404.445px" style="font-family:'OpenSans-Bold', 'Open Sans', sans-serif;font-weight:700;font-size:60px;fill:rgb(128,128,128);">ST<tspan x="318.818px 359.014px 402.461px " y="404.445px 404.445px 404.445px ">AGI</tspan>NG</text>
        </g>
        <g transform="matrix(0.866915,0,0,0.866915,125.615,924.381)">
            <text x="161.933px" y="404.445px" style="font-family:'OpenSans-Bold', 'Open Sans', sans-serif;font-weight:700;font-size:60px;">GIT MASTER</text>
        </g>
        <g transform="matrix(0.866915,0,0,0.866915,125.64,1120.98)">
            <text x="245.81px" y="404.445px" style="font-family:'OpenSans-Bold', 'Open Sans', sans-serif;font-weight:700;font-size:60px;">DEVEL<tspan x="429.121px 476.875px " y="404.445px 404.445px ">OP</tspan></text>
        </g>
        <g transform="matrix(0.866915,0,0,0.866915,125.64,1317.58)">
            <text x="257.5px" y="404.445px" style="font-family:'OpenSans-Bold', 'Open Sans', sans-serif;font-weight:700;font-size:60px;">FEA<tspan x="361.24px 395.986px " y="404.445px 404.445px ">TU</tspan>RE</text>
        </g>
        <g transform="matrix(0.58498,0,0,0.58498,900.827,458.64)">
            <path d="M2247.93,558.667C2247.93,550.481 2244.68,542.63 2238.89,536.841C2233.1,531.053 2225.25,527.801 2217.07,527.801C2190.61,527.801 2152.7,527.801 2126.24,527.801C2118.06,527.801 2110.21,531.053 2104.42,536.841C2098.63,542.63 2095.38,550.481 2095.38,558.667C2095.38,568.939 2095.38,580.377 2095.38,590.649C2095.38,598.835 2098.63,606.686 2104.42,612.475C2110.21,618.264 2118.06,621.515 2126.24,621.515C2152.7,621.515 2190.61,621.515 2217.07,621.515C2225.25,621.515 2233.1,618.264 2238.89,612.475C2244.68,606.686 2247.93,598.835 2247.93,590.649C2247.93,580.377 2247.93,568.939 2247.93,558.667Z" style="fill:rgb(51,51,51);"/>
            <clipPath id="_clip1">
                <path d="M2247.93,558.667C2247.93,550.481 2244.68,542.63 2238.89,536.841C2233.1,531.053 2225.25,527.801 2217.07,527.801C2190.61,527.801 2152.7,527.801 2126.24,527.801C2118.06,527.801 2110.21,531.053 2104.42,536.841C2098.63,542.63 2095.38,550.481 2095.38,558.667C2095.38,568.939 2095.38,580.377 2095.38,590.649C2095.38,598.835 2098.63,606.686 2104.42,612.475C2110.21,618.264 2118.06,621.515 2126.24,621.515C2152.7,621.515 2190.61,621.515 2217.07,621.515C2225.25,621.515 2233.1,618.264 2238.89,612.475C2244.68,606.686 2247.93,598.835 2247.93,590.649C2247.93,580.377 2247.93,568.939 2247.93,558.667Z"/>
            </clipPath>
            <g clip-path="url(#_clip1)">
                <g transform="matrix(1.45364,0,0,1.45364,-930.734,-262.309)">
                    <text x="2100.21px" y="592.25px" style="font-family:'Hind-Bold', 'Hind';font-weight:700;font-size:49.934px;fill:none;">4.0</text>
                    <text x="2100.21px" y="592.25px" style="font-family:'Hind-Bold', 'Hind';font-weight:700;font-size:49.934px;fill:white;">4.0</text>
                </g>
            </g>
        </g>
        <g transform="matrix(0.58498,0,0,0.58498,-306.794,980.178)">
            <path d="M2247.93,558.667C2247.93,550.481 2244.68,542.63 2238.89,536.841C2233.1,531.053 2225.25,527.801 2217.07,527.801C2190.61,527.801 2152.7,527.801 2126.24,527.801C2118.06,527.801 2110.21,531.053 2104.42,536.841C2098.63,542.63 2095.38,550.481 2095.38,558.667C2095.38,568.939 2095.38,580.377 2095.38,590.649C2095.38,598.835 2098.63,606.686 2104.42,612.475C2110.21,618.264 2118.06,621.515 2126.24,621.515C2152.7,621.515 2190.61,621.515 2217.07,621.515C2225.25,621.515 2233.1,618.264 2238.89,612.475C2244.68,606.686 2247.93,598.835 2247.93,590.649C2247.93,580.377 2247.93,568.939 2247.93,558.667Z" style="fill:rgb(255,215,72);"/>
            <clipPath id="_clip2">
                <path d="M2247.93,558.667C2247.93,550.481 2244.68,542.63 2238.89,536.841C2233.1,531.053 2225.25,527.801 2217.07,527.801C2190.61,527.801 2152.7,527.801 2126.24,527.801C2118.06,527.801 2110.21,531.053 2104.42,536.841C2098.63,542.63 2095.38,550.481 2095.38,558.667C2095.38,568.939 2095.38,580.377 2095.38,590.649C2095.38,598.835 2098.63,606.686 2104.42,612.475C2110.21,618.264 2118.06,621.515 2126.24,621.515C2152.7,621.515 2190.61,621.515 2217.07,621.515C2225.25,621.515 2233.1,618.264 2238.89,612.475C2244.68,606.686 2247.93,598.835 2247.93,590.649C2247.93,580.377 2247.93,568.939 2247.93,558.667Z"/>
            </clipPath>
            <g clip-path="url(#_clip2)">
                <g transform="matrix(1.45364,0,0,1.45364,-930.734,-262.309)">
                    <text x="2100.21px" y="592.25px" style="font-family:'Hind-Bold', 'Hind';font-weight:700;font-size:49.934px;fill:none;">4.0</text>
                    <text x="2100.21px" y="592.25px" style="font-family:'Hind-Bold', 'Hind';font-weight:700;font-size:49.934px;fill:rgb(51,51,51);">4.0</text>
                </g>
            </g>
        </g>
        <g transform="matrix(0.58498,0,0,0.58498,1190.31,1023.22)">
            <path d="M2247.93,558.667C2247.93,550.481 2244.68,542.63 2238.89,536.841C2233.1,531.053 2225.25,527.801 2217.07,527.801C2190.61,527.801 2152.7,527.801 2126.24,527.801C2118.06,527.801 2110.21,531.053 2104.42,536.841C2098.63,542.63 2095.38,550.481 2095.38,558.667C2095.38,568.939 2095.38,580.377 2095.38,590.649C2095.38,598.835 2098.63,606.686 2104.42,612.475C2110.21,618.264 2118.06,621.515 2126.24,621.515C2152.7,621.515 2190.61,621.515 2217.07,621.515C2225.25,621.515 2233.1,618.264 2238.89,612.475C2244.68,606.686 2247.93,598.835 2247.93,590.649C2247.93,580.377 2247.93,568.939 2247.93,558.667Z" style="fill:rgb(255,215,72);"/>
            <clipPath id="_clip3">
                <path d="M2247.93,558.667C2247.93,550.481 2244.68,542.63 2238.89,536.841C2233.1,531.053 2225.25,527.801 2217.07,527.801C2190.61,527.801 2152.7,527.801 2126.24,527.801C2118.06,527.801 2110.21,531.053 2104.42,536.841C2098.63,542.63 2095.38,550.481 2095.38,558.667C2095.38,568.939 2095.38,580.377 2095.38,590.649C2095.38,598.835 2098.63,606.686 2104.42,612.475C2110.21,618.264 2118.06,621.515 2126.24,621.515C2152.7,621.515 2190.61,621.515 2217.07,621.515C2225.25,621.515 2233.1,618.264 2238.89,612.475C2244.68,606.686 2247.93,598.835 2247.93,590.649C2247.93,580.377 2247.93,568.939 2247.93,558.667Z"/>
            </clipPath>
            <g clip-path="url(#_clip3)">
                <g transform="matrix(1.45364,0,0,1.45364,-934.955,-262.309)">
                    <text x="2104.38px" y="592.25px" style="font-family:'Hind-Bold', 'Hind';font-weight:700;font-size:49.934px;fill:none;">4.1</text>
                    <text x="2104.38px" y="592.25px" style="font-family:'Hind-Bold', 'Hind';font-weight:700;font-size:49.934px;fill:rgb(51,51,51);">4.1</text>
                </g>
            </g>
        </g>
        <g transform="matrix(0.58498,0,0,0.58498,1409.25,831.975)">
            <path d="M2247.93,558.667C2247.93,550.481 2244.68,542.63 2238.89,536.841C2233.1,531.053 2225.25,527.801 2217.07,527.801C2190.61,527.801 2152.7,527.801 2126.24,527.801C2118.06,527.801 2110.21,531.053 2104.42,536.841C2098.63,542.63 2095.38,550.481 2095.38,558.667C2095.38,568.939 2095.38,580.377 2095.38,590.649C2095.38,598.835 2098.63,606.686 2104.42,612.475C2110.21,618.264 2118.06,621.515 2126.24,621.515C2152.7,621.515 2190.61,621.515 2217.07,621.515C2225.25,621.515 2233.1,618.264 2238.89,612.475C2244.68,606.686 2247.93,598.835 2247.93,590.649C2247.93,580.377 2247.93,568.939 2247.93,558.667Z" style="fill:rgb(101,209,255);"/>
            <clipPath id="_clip4">
                <path d="M2247.93,558.667C2247.93,550.481 2244.68,542.63 2238.89,536.841C2233.1,531.053 2225.25,527.801 2217.07,527.801C2190.61,527.801 2152.7,527.801 2126.24,527.801C2118.06,527.801 2110.21,531.053 2104.42,536.841C2098.63,542.63 2095.38,550.481 2095.38,558.667C2095.38,568.939 2095.38,580.377 2095.38,590.649C2095.38,598.835 2098.63,606.686 2104.42,612.475C2110.21,618.264 2118.06,621.515 2126.24,621.515C2152.7,621.515 2190.61,621.515 2217.07,621.515C2225.25,621.515 2233.1,618.264 2238.89,612.475C2244.68,606.686 2247.93,598.835 2247.93,590.649C2247.93,580.377 2247.93,568.939 2247.93,558.667Z"/>
            </clipPath>
            <g clip-path="url(#_clip4)">
                <g transform="matrix(1.45364,0,0,1.45364,-934.955,-262.309)">
                    <text x="2104.38px" y="592.25px" style="font-family:'Hind-Bold', 'Hind';font-weight:700;font-size:49.934px;fill:none;">4.1</text>
                    <text x="2104.38px" y="592.25px" style="font-family:'Hind-Bold', 'Hind';font-weight:700;font-size:49.934px;fill:rgb(51,51,51);">4.1</text>
                </g>
            </g>
        </g>
        <g transform="matrix(0.58498,0,0,0.58498,611.35,831.975)">
            <path d="M2247.93,558.667C2247.93,550.481 2244.68,542.63 2238.89,536.841C2233.1,531.053 2225.25,527.801 2217.07,527.801C2190.61,527.801 2152.7,527.801 2126.24,527.801C2118.06,527.801 2110.21,531.053 2104.42,536.841C2098.63,542.63 2095.38,550.481 2095.38,558.667C2095.38,568.939 2095.38,580.377 2095.38,590.649C2095.38,598.835 2098.63,606.686 2104.42,612.475C2110.21,618.264 2118.06,621.515 2126.24,621.515C2152.7,621.515 2190.61,621.515 2217.07,621.515C2225.25,621.515 2233.1,618.264 2238.89,612.475C2244.68,606.686 2247.93,598.835 2247.93,590.649C2247.93,580.377 2247.93,568.939 2247.93,558.667Z" style="fill:rgb(101,209,255);"/>
            <clipPath id="_clip5">
                <path d="M2247.93,558.667C2247.93,550.481 2244.68,542.63 2238.89,536.841C2233.1,531.053 2225.25,527.801 2217.07,527.801C2190.61,527.801 2152.7,527.801 2126.24,527.801C2118.06,527.801 2110.21,531.053 2104.42,536.841C2098.63,542.63 2095.38,550.481 2095.38,558.667C2095.38,568.939 2095.38,580.377 2095.38,590.649C2095.38,598.835 2098.63,606.686 2104.42,612.475C2110.21,618.264 2118.06,621.515 2126.24,621.515C2152.7,621.515 2190.61,621.515 2217.07,621.515C2225.25,621.515 2233.1,618.264 2238.89,612.475C2244.68,606.686 2247.93,598.835 2247.93,590.649C2247.93,580.377 2247.93,568.939 2247.93,558.667Z"/>
            </clipPath>
            <g clip-path="url(#_clip5)">
                <g transform="matrix(1.45364,0,0,1.45364,-930.734,-262.309)">
                    <text x="2100.21px" y="592.25px" style="font-family:'Hind-Bold', 'Hind';font-weight:700;font-size:49.934px;fill:none;">4.0</text>
                    <text x="2100.21px" y="592.25px" style="font-family:'Hind-Bold', 'Hind';font-weight:700;font-size:49.934px;fill:rgb(51,51,51);">4.0</text>
                </g>
            </g>
        </g>
        <g transform="matrix(0.58498,0,0,0.58498,-518.395,548.607)">
            <path d="M2287.57,558.667C2287.57,550.481 2284.32,542.63 2278.53,536.841C2272.74,531.053 2264.89,527.801 2256.71,527.801C2220.86,527.801 2162.09,527.801 2126.24,527.801C2118.06,527.801 2110.21,531.053 2104.42,536.841C2098.63,542.63 2095.38,550.481 2095.38,558.667C2095.38,568.939 2095.38,580.377 2095.38,590.649C2095.38,598.835 2098.63,606.686 2104.42,612.475C2110.21,618.264 2118.06,621.515 2126.24,621.515C2162.09,621.515 2220.86,621.515 2256.71,621.515C2264.89,621.515 2272.74,618.264 2278.53,612.475C2284.32,606.686 2287.57,598.835 2287.57,590.649C2287.57,580.377 2287.57,568.939 2287.57,558.667Z" style="fill:rgb(51,51,51);"/>
            <clipPath id="_clip6">
                <path d="M2287.57,558.667C2287.57,550.481 2284.32,542.63 2278.53,536.841C2272.74,531.053 2264.89,527.801 2256.71,527.801C2220.86,527.801 2162.09,527.801 2126.24,527.801C2118.06,527.801 2110.21,531.053 2104.42,536.841C2098.63,542.63 2095.38,550.481 2095.38,558.667C2095.38,568.939 2095.38,580.377 2095.38,590.649C2095.38,598.835 2098.63,606.686 2104.42,612.475C2110.21,618.264 2118.06,621.515 2126.24,621.515C2162.09,621.515 2220.86,621.515 2256.71,621.515C2264.89,621.515 2272.74,618.264 2278.53,612.475C2284.32,606.686 2287.57,598.835 2287.57,590.649C2287.57,580.377 2287.57,568.939 2287.57,558.667Z"/>
            </clipPath>
            <g clip-path="url(#_clip6)">
                <g transform="matrix(1.45364,0,0,1.45364,-911.458,-262.309)">
                    <text x="2087.93px" y="592.25px" style="font-family:'Hind-Bold', 'Hind';font-weight:700;font-size:49.934px;fill:none;">3.1.7</text>
                    <text x="2087.93px" y="592.25px" style="font-family:'Hind-Bold', 'Hind';font-weight:700;font-size:49.934px;fill:white;">3.1.7</text>
                </g>
            </g>
        </g>
        <g transform="matrix(0.58498,0,0,0.58498,1647.16,458.64)">
            <path d="M2247.93,558.667C2247.93,550.481 2244.68,542.63 2238.89,536.841C2233.1,531.053 2225.25,527.801 2217.07,527.801C2190.61,527.801 2152.7,527.801 2126.24,527.801C2118.06,527.801 2110.21,531.053 2104.42,536.841C2098.63,542.63 2095.38,550.481 2095.38,558.667C2095.38,568.939 2095.38,580.377 2095.38,590.649C2095.38,598.835 2098.63,606.686 2104.42,612.475C2110.21,618.264 2118.06,621.515 2126.24,621.515C2152.7,621.515 2190.61,621.515 2217.07,621.515C2225.25,621.515 2233.1,618.264 2238.89,612.475C2244.68,606.686 2247.93,598.835 2247.93,590.649C2247.93,580.377 2247.93,568.939 2247.93,558.667Z" style="fill:rgb(51,51,51);"/>
            <clipPath id="_clip7">
                <path d="M2247.93,558.667C2247.93,550.481 2244.68,542.63 2238.89,536.841C2233.1,531.053 2225.25,527.801 2217.07,527.801C2190.61,527.801 2152.7,527.801 2126.24,527.801C2118.06,527.801 2110.21,531.053 2104.42,536.841C2098.63,542.63 2095.38,550.481 2095.38,558.667C2095.38,568.939 2095.38,580.377 2095.38,590.649C2095.38,598.835 2098.63,606.686 2104.42,612.475C2110.21,618.264 2118.06,621.515 2126.24,621.515C2152.7,621.515 2190.61,621.515 2217.07,621.515C2225.25,621.515 2233.1,618.264 2238.89,612.475C2244.68,606.686 2247.93,598.835 2247.93,590.649C2247.93,580.377 2247.93,568.939 2247.93,558.667Z"/>
            </clipPath>
            <g clip-path="url(#_clip7)">
                <g transform="matrix(1.45364,0,0,1.45364,-934.955,-262.309)">
                    <text x="2104.38px" y="592.25px" style="font-family:'Hind-Bold', 'Hind';font-weight:700;font-size:49.934px;fill:none;">4.1</text>
                    <text x="2104.38px" y="592.25px" style="font-family:'Hind-Bold', 'Hind';font-weight:700;font-size:49.934px;fill:white;">4.1</text>
                </g>
            </g>
        </g>
    </g>
    <g transform="matrix(1,0,0,1,16.2546,0)">
        <path d="M225.97,394.334L3041.52,394.334" style="fill:none;stroke:rgb(238,238,238);stroke-width:41.67px;stroke-linecap:butt;"/>
    </g>
    <g transform="matrix(1.52127,0,0,1.52127,-134.959,-274.213)">
        <text x="245.091px" y="404.445px" style="font-family:'Hind-Bold', 'Hind';font-weight:700;font-size:43.823px;fill:rgb(0,71,194);">DEPARTMENT THEME ROADMAP</text>
    </g>
</svg>
