<?xml version="1.0" encoding="UTF-8" standalone="no"?>
<!DOCTYPE svg PUBLIC "-//W3C//DTD SVG 1.1//EN" "http://www.w3.org/Graphics/SVG/1.1/DTD/svg11.dtd">
<svg width="100%" height="100%" viewBox="0 0 3300 2550" version="1.1" xmlns="http://www.w3.org/2000/svg" xmlns:xlink="http://www.w3.org/1999/xlink" xml:space="preserve" style="fill-rule:evenodd;clip-rule:evenodd;stroke-linecap:round;stroke-linejoin:round;stroke-miterlimit:1.5;">
    <g transform="matrix(1,0,0,1,29.2566,55.4512)">
        <g>
            <g transform="matrix(1.07402,0,0,1.13381,-173.962,512.692)">
                <rect x="2188.32" y="202.662" width="445.948" height="946.412" style="fill:rgb(242,242,242);"/>
            </g>
            <g transform="matrix(1.30976,0,0,1.13381,-2102.59,512.692)">
                <rect x="2188.32" y="202.662" width="445.948" height="946.412" style="fill:rgb(242,242,242);"/>
            </g>
            <g transform="matrix(1.14817,0,0,1.13381,-1149.89,512.692)">
                <rect x="2188.32" y="202.662" width="445.948" height="946.412" style="fill:rgb(242,242,242);"/>
            </g>
            <g transform="matrix(0.609138,0,0,1.13381,556.693,512.692)">
                <rect x="2188.32" y="202.662" width="445.948" height="946.412" style="fill:rgb(242,242,242);"/>
            </g>
            <g transform="matrix(1.07402,0,0,0.727447,-173.962,613.234)">
                <rect x="2188.32" y="75.88" width="445.948" height="101.782" style="fill:rgb(217,217,217);"/>
            </g>
            <g transform="matrix(1.30976,0,0,0.727447,-2102.59,613.234)">
                <rect x="2188.32" y="75.88" width="445.948" height="101.782" style="fill:rgb(217,217,217);"/>
            </g>
            <g transform="matrix(1.14817,0,0,0.727447,-1149.89,613.234)">
                <rect x="2188.32" y="75.88" width="445.948" height="101.782" style="fill:rgb(217,217,217);"/>
            </g>
            <g transform="matrix(0.609138,0,0,0.727447,556.693,613.234)">
                <rect x="2188.32" y="75.88" width="445.948" height="101.782" style="fill:rgb(217,217,217);"/>
            </g>
            <g transform="matrix(3.41283e-17,-0.557357,0.230703,1.41265e-17,974.585,2363.04)">
                <path d="M1135.22,1657.75L1135.22,1641.5L1509.52,1641.5L1499.43,1617.11L1507.94,1617.11L1521.4,1649.62L1507.94,1682.13L1499.43,1682.13L1509.52,1657.75L1135.22,1657.75Z"/>
            </g>
            <g transform="matrix(3.41283e-17,-0.557357,0.230703,1.41265e-17,2081.05,2363.04)">
                <path d="M1135.22,1657.75L1135.22,1641.5L1509.52,1641.5L1499.43,1617.11L1507.94,1617.11L1521.4,1649.62L1507.94,1682.13L1499.43,1682.13L1509.52,1657.75L1135.22,1657.75Z"/>
            </g>
            <g transform="matrix(0.866915,0,0,0.866915,736.933,369.716)">
                <text x="249.326px" y="404.445px" style="font-family:'OpenSans-Bold', 'Open Sans', sans-serif;font-weight:700;font-size:48.063px;fill:rgb(128,128,128);">CLEAN UP</text>
            </g>
            <g transform="matrix(0.866915,0,0,0.866915,1269.33,369.716)">
                <text x="313.594px" y="404.445px" style="font-family:'OpenSans-Bold', 'Open Sans', sans-serif;font-weight:700;font-size:48.063px;fill:rgb(128,128,128);">DESIGN</text>
            </g>
            <g transform="matrix(0.866915,0,0,0.866915,1676.16,369.716)">
                <text x="303.55px" y="404.445px" style="font-family:'OpenSans-Bold', 'Open Sans', sans-serif;font-weight:700;font-size:48.063px;fill:rgb(128,128,128);">TESTING</text>
            </g>
            <g transform="matrix(0.866915,0,0,0.866915,2100.52,369.716)">
                <text x="298.601px" y="404.445px" style="font-family:'OpenSans-Bold', 'Open Sans', sans-serif;font-weight:700;font-size:48.063px;fill:rgb(128,128,128);">FIXES</text>
            </g>
            <g transform="matrix(0.866915,0,0,0.866915,1124.49,1380.15)">
                <text x="308.928px" y="404.445px" style="font-family:'OpenSans-Bold', 'Open Sans', sans-serif;font-weight:700;font-size:38.451px;">Split theme into two skins</text>
            </g>
            <g transform="matrix(0.866915,0,0,0.866915,640.215,1031.32)">
                <text x="308.928px" y="404.445px" style="font-family:'OpenSans', 'Open Sans', sans-serif;font-size:38.451px;">Gulpify</text>
            </g>
            <g transform="matrix(0.866915,0,0,0.866915,828.702,997.34)">
                <text x="330.931px" y="404.445px" style="font-family:'OpenSans', 'Open Sans', sans-serif;font-size:38.451px;">Styles</text>
                <text x="332.509px" y="452.508px" style="font-family:'OpenSans', 'Open Sans', sans-serif;font-size:38.451px;">Clean</text>
            </g>
            <g transform="matrix(0.866915,0,0,0.866915,829.224,1381.07)">
                <text x="345.444px" y="404.445px" style="font-family:'OpenSans', 'Open Sans', sans-serif;font-size:38.451px;">PHP</text>
                <text x="332.509px" y="452.508px" style="font-family:'OpenSans', 'Open Sans', sans-serif;font-size:38.451px;">Clean</text>
            </g>
            <g transform="matrix(0.866915,0,0,0.866915,2229.02,1380.15)">
                <text x="308.928px" y="404.445px" style="font-family:'OpenSans-Bold', 'Open Sans', sans-serif;font-weight:700;font-size:38.451px;">Remo<tspan x="417.821px 439.693px " y="404.445px 404.445px ">ve</tspan> legacy skin</text>
            </g>
        </g>
        <g transform="matrix(0.866915,0,0,0.866915,177.939,691.802)">
            <path d="M536.812,424.516L3273.19,424.516" style="fill:none;stroke:rgb(128,128,128);stroke-width:11.54px;stroke-dasharray:0,34.61,0,0;"/>
        </g>
        <g transform="matrix(0.866915,0,0,0.866915,177.939,1085)">
            <path d="M536.812,424.516L3273.19,424.516" style="fill:none;stroke:rgb(128,128,128);stroke-width:10px;stroke-dasharray:0,30,0,0;"/>
        </g>
        <g transform="matrix(0.866915,0,0,0.866915,177.939,1281.6)">
            <path d="M536.812,424.516L3273.19,424.516" style="fill:none;stroke:rgb(128,128,128);stroke-width:10px;stroke-dasharray:0,30,0,0;"/>
        </g>
        <g transform="matrix(-0.866915,0,0,0.409424,4552.57,734.657)">
            <path d="M1965.83,795.259L1965.83,366.945" style="fill:none;stroke:rgb(94,212,113);stroke-width:12.79px;"/>
        </g>
        <g id="Master" transform="matrix(0.78547,0,0,0.866915,326.02,998.312)">
            <path d="M403.947,297.733L2349.07,297.733" style="fill:none;stroke:rgb(51,51,51);stroke-width:10.48px;"/>
        </g>
        <g transform="matrix(0.866915,0,0,0.866915,177.939,566.783)">
            <path d="M2857.73,795.76L3273.19,795.76" style="fill:none;stroke:rgb(94,212,113);stroke-width:10px;"/>
        </g>
        <g id="Production" transform="matrix(0.854331,0,0,0.866915,298.204,626.783)">
            <path d="M403.947,297.733L2192.36,297.593" style="fill:none;stroke:rgb(51,51,51);stroke-width:10.07px;"/>
        </g>
        <g transform="matrix(0.866915,0,0,0.866915,177.939,566.783)">
            <path d="M3273.19,366.945L2856.86,366.945" style="fill:none;stroke:rgb(94,212,113);stroke-width:10px;"/>
        </g>
        <g id="Develop" transform="matrix(0.866915,0,0,0.866915,119.348,735.148)">
            <path d="M743.126,601.298C743.126,601.298 748.437,601.298 756.612,601.298C779.557,601.298 801.562,610.413 817.787,626.637C834.011,642.862 843.126,664.867 843.126,687.812C843.126,705.424 843.126,723.954 843.126,741.567C843.126,764.511 852.241,786.516 868.465,802.741C884.69,818.965 906.695,828.08 929.64,828.08C1091.77,828.08 1425.1,828.08 1425.1,828.08" style="fill:none;stroke:rgb(51,51,51);stroke-width:10px;"/>
        </g>
        <g id="Develop1" transform="matrix(0.866915,0,0,0.866915,319.354,931.723)">
            <path d="M743.126,601.298C743.126,601.298 748.437,601.298 756.612,601.298C779.557,601.298 801.562,610.413 817.787,626.637C834.011,642.862 843.126,664.867 843.126,687.812C843.126,705.424 843.126,723.954 843.126,741.567C843.126,764.511 852.241,786.516 868.465,802.741C884.69,818.965 906.695,828.08 929.64,828.08C942.896,828.08 952.273,828.08 952.273,828.08" style="fill:none;stroke:rgb(51,51,51);stroke-width:10px;"/>
        </g>
        <g id="Develop2" transform="matrix(-0.866915,0,0,0.866915,1999.96,931.748)">
            <path d="M743.126,601.298C743.126,601.298 748.437,601.298 756.612,601.298C779.557,601.298 801.562,610.413 817.787,626.637C834.011,642.862 843.126,664.867 843.126,687.812C843.126,705.424 843.126,723.954 843.126,741.567C843.126,764.511 852.241,786.516 868.465,802.741C884.69,818.965 906.695,828.08 929.64,828.08C942.896,828.08 952.273,828.08 952.273,828.08" style="fill:none;stroke:rgb(51,51,51);stroke-width:10px;"/>
        </g>
        <g transform="matrix(0.866915,0,0,0.866915,177.939,566.783)">
            <g id="Develop3" transform="matrix(1,0,0,1,-67.5857,194.212)">
                <path d="M1426.19,828.08C1426.19,828.08 1700.16,828.08 1844.4,828.08C1867.35,828.08 1889.35,818.965 1905.58,802.741C1921.8,786.516 1930.91,764.511 1930.91,741.567C1930.91,723.954 1930.91,705.424 1930.91,687.812C1930.91,664.867 1940.03,642.862 1956.25,626.637C1972.48,610.413 1994.48,601.298 2017.43,601.298C2025.6,601.298 2030.91,601.298 2030.91,601.298" style="fill:none;stroke:white;stroke-width:50px;"/>
            </g>
            <g id="Develop4" transform="matrix(1,0,0,1,-67.5857,183.712)">
                <path d="M1426.19,828.08C1426.19,828.08 1711.81,828.08 1848.91,828.08C1888.56,828.08 1920.69,795.942 1920.69,756.298C1920.69,738.15 1920.69,718.351 1920.69,699.157C1920.69,673.203 1931,648.312 1949.36,629.96C1967.71,611.608 1992.6,601.298 2018.55,601.298C2026.13,601.298 2030.91,601.298 2030.91,601.298" style="fill:none;stroke:rgb(51,51,51);stroke-width:10px;"/>
            </g>
            <g id="Develop5" transform="matrix(1,0,0,1,-67.5857,205.212)">
                <path d="M1426.19,828.08C1426.19,828.08 1688.57,828.08 1839.38,828.08C1866.83,828.08 1893.16,817.175 1912.57,797.763C1931.98,778.352 1942.89,752.024 1942.89,724.572C1942.89,706.337 1942.89,687.758 1942.89,670.742C1942.89,632.389 1973.98,601.298 2012.33,601.298C2023.2,601.298 2030.91,601.298 2030.91,601.298" style="fill:none;stroke:rgb(94,212,113);stroke-width:10px;"/>
            </g>
        </g>
        <g id="Develop6" transform="matrix(-0.866915,0,0,0.866915,3644.1,735.148)">
            <path d="M1364.01,828.08C1364.01,828.08 1444.44,828.08 1510.87,828.08C1533.81,828.08 1555.82,818.965 1572.04,802.741C1588.27,786.516 1597.38,764.511 1597.38,741.567C1597.38,723.954 1597.38,705.424 1597.38,687.812C1597.38,664.867 1606.5,642.862 1622.72,626.637C1638.94,610.413 1660.95,601.298 1683.89,601.298C1692.07,601.298 1697.38,601.298 1697.38,601.298" style="fill:none;stroke:white;stroke-width:50px;"/>
        </g>
        <g id="Develop7" transform="matrix(-0.866915,0,0,-0.866915,3354.15,1777.91)">
            <path d="M1364.01,828.08C1364.01,828.08 1445.14,828.08 1511.95,828.08C1534.9,828.08 1556.9,818.965 1573.13,802.741C1589.35,786.516 1598.47,764.511 1598.47,741.567C1598.47,723.954 1598.47,705.424 1598.47,687.812C1598.47,664.867 1607.58,642.862 1623.81,626.637C1640.03,610.413 1662.04,601.298 1684.98,601.298C1693.16,601.298 1698.47,601.298 1698.47,601.298" style="fill:none;stroke:white;stroke-width:50px;"/>
        </g>
        <g transform="matrix(0.87388,0,0,0.866915,931.24,369.965)">
            <g id="Develop8" transform="matrix(1,0,0,1,-67.5857,194.212)">
                <path d="M1155.25,828.08L2039.66,828.08" style="fill:none;stroke:white;stroke-width:49.8px;"/>
            </g>
            <g id="Develop9" transform="matrix(1,0,0,1,-67.5857,183.712)">
                <path d="M1155.25,828.08L2039.66,828.08" style="fill:none;stroke:rgb(51,51,51);stroke-width:9.96px;"/>
            </g>
            <g id="Develop10" transform="matrix(1,0,0,1,-67.5857,205.212)">
                <path d="M1155.25,828.08L2039.66,828.08" style="fill:none;stroke:rgb(94,212,113);stroke-width:9.96px;"/>
            </g>
        </g>
        <g transform="matrix(-0.866915,0,0,0.866915,3585.51,566.783)">
            <g id="Develop11" transform="matrix(1,0,0,1,-67.5857,183.712)">
                <path d="M1365.1,828.08C1365.1,828.08 1448.36,828.08 1513.29,828.08C1554.99,828.08 1588.79,794.277 1588.79,752.579C1588.79,735.464 1588.79,717.047 1588.79,699.157C1588.79,673.203 1599.1,648.312 1617.45,629.96C1635.81,611.608 1660.7,601.298 1686.65,601.298C1694.23,601.298 1699.01,601.298 1699.01,601.298" style="fill:none;stroke:rgb(51,51,51);stroke-width:10px;"/>
            </g>
            <g id="Develop12" transform="matrix(1,0,0,-1,266.332,1407.81)">
                <path d="M1365.1,828.08C1365.1,828.08 1448.36,828.08 1513.29,828.08C1554.99,828.08 1588.79,794.277 1588.79,752.579C1588.79,735.464 1588.79,717.047 1588.79,699.157C1588.79,673.203 1599.1,648.312 1617.45,629.96C1635.81,611.608 1660.7,601.298 1686.65,601.298C1694.23,601.298 1699.01,601.298 1699.01,601.298" style="fill:none;stroke:rgb(94,212,113);stroke-width:10px;"/>
            </g>
            <g id="Develop13" transform="matrix(1,0,0,1,-67.5857,205.212)">
                <path d="M1365.1,828.08C1365.1,828.08 1440.26,828.08 1507.48,828.08C1564.65,828.08 1610.99,781.738 1610.99,724.572C1610.99,706.337 1610.99,687.758 1610.99,670.742C1610.99,632.389 1642.08,601.298 1680.43,601.298C1691.3,601.298 1699.01,601.298 1699.01,601.298" style="fill:none;stroke:rgb(94,212,113);stroke-width:10px;"/>
            </g>
            <g id="Develop14" transform="matrix(1,0,0,-1,266.332,1386.31)">
                <path d="M1365.1,828.08C1365.1,828.08 1440.26,828.08 1507.48,828.08C1564.65,828.08 1610.99,781.738 1610.99,724.572C1610.99,706.337 1610.99,687.758 1610.99,670.742C1610.99,632.389 1642.08,601.298 1680.43,601.298C1691.3,601.298 1699.01,601.298 1699.01,601.298" style="fill:none;stroke:rgb(51,51,51);stroke-width:10px;"/>
            </g>
        </g>
        <g transform="matrix(0.764599,0,0,0.866915,1340.05,-1.56439)">
            <g id="Develop15" transform="matrix(1,0,0,1,-67.5857,194.212)">
                <path d="M1155.25,828.08L2039.66,828.08" style="fill:none;stroke:white;stroke-width:53.03px;"/>
            </g>
            <g id="Develop16" transform="matrix(1,0,0,1,-67.5857,183.712)">
                <path d="M1155.25,828.08L2039.66,828.08" style="fill:none;stroke:rgb(51,51,51);stroke-width:10.61px;"/>
            </g>
            <g id="Develop17" transform="matrix(1,0,0,1,-67.5857,205.212)">
                <path d="M1155.25,828.08L2039.66,828.08" style="fill:none;stroke:rgb(94,212,113);stroke-width:10.61px;"/>
            </g>
        </g>
        <g transform="matrix(5.30593e-17,-0.866524,0.866915,5.30832e-17,1285.22,2593.74)">
            <g id="Develop18" transform="matrix(1,0,0,1,-67.5857,194.212)">
                <path d="M1838.04,828.08L2039.66,828.08" style="fill:none;stroke:white;stroke-width:50.01px;"/>
            </g>
            <g id="Develop19" transform="matrix(1,0,0,1,-67.5857,183.712)">
                <path d="M1838.04,828.08L2039.66,828.08" style="fill:none;stroke:rgb(51,51,51);stroke-width:10px;"/>
            </g>
            <g id="Develop20" transform="matrix(1,0,0,1,-67.5857,205.212)">
                <path d="M1838.04,828.08L2039.66,828.08" style="fill:none;stroke:rgb(94,212,113);stroke-width:10px;"/>
            </g>
        </g>
        <g id="Develop21" transform="matrix(0.866915,0,0,0.866915,1624.1,735.148)">
            <path d="M966.1,828.08C966.1,828.08 982.101,828.08 1002.56,828.08C1025.51,828.08 1047.51,818.965 1063.74,802.741C1079.96,786.517 1089.07,764.511 1089.07,741.567C1089.07,727.403 1089.07,712.725 1089.07,698.561C1089.07,650.781 1127.81,612.048 1175.59,612.048C1183.76,612.048 1189.07,612.048 1189.07,612.048" style="fill:none;stroke:rgb(94,212,113);stroke-width:10px;"/>
        </g>
        <g id="Develop22" transform="matrix(0.866915,0,0,0.866915,1817.07,539.955)">
            <path d="M966.1,828.08C966.1,828.08 982.101,828.08 1002.56,828.08C1050.34,828.08 1089.07,789.347 1089.07,741.567C1089.07,723.596 1089.07,704.658 1089.07,686.687C1089.07,638.907 1127.81,600.173 1175.59,600.173C1183.76,600.173 1189.07,600.173 1189.07,600.173" style="fill:none;stroke:rgb(94,212,113);stroke-width:10px;"/>
        </g>
        <g transform="matrix(0.398366,0,0,0.398366,425.174,1054.66)">
            <circle cx="849.473" cy="506.469" r="81.607" style="fill:rgb(101,209,255);stroke:rgb(51,51,51);stroke-width:21.76px;"/>
        </g>
        <g transform="matrix(0.398366,0,0,0.398366,1543.32,1054.66)">
            <circle cx="849.473" cy="506.469" r="81.607" style="fill:rgb(101,209,255);stroke:rgb(51,51,51);stroke-width:21.76px;"/>
        </g>
        <g transform="matrix(0.398366,0,0,0.398366,1833.27,1054.66)">
            <circle cx="849.473" cy="506.469" r="81.607" style="fill:rgb(101,209,255);stroke:rgb(51,51,51);stroke-width:21.76px;"/>
        </g>
        <g transform="matrix(0.398366,0,0,0.398366,2316.52,1054.66)">
            <circle cx="849.473" cy="506.469" r="81.607" style="fill:rgb(101,209,255);stroke:rgb(51,51,51);stroke-width:21.76px;"/>
        </g>
        <g transform="matrix(0.398366,0,0,0.398366,1833.27,858.061)">
            <circle cx="849.473" cy="506.469" r="81.607" style="fill:rgb(132,255,123);stroke:rgb(51,51,51);stroke-width:21.76px;"/>
        </g>
        <g transform="matrix(0.398366,0,0,0.398366,2509.49,858.061)">
            <circle cx="849.473" cy="506.469" r="81.607" style="fill:rgb(132,255,123);stroke:rgb(51,51,51);stroke-width:21.76px;"/>
        </g>
        <g transform="matrix(0.398366,0,0,0.398366,2509.49,683.133)">
            <circle cx="849.473" cy="506.469" r="81.607" style="fill:rgb(204,204,204);stroke:rgb(51,51,51);stroke-width:21.76px;"/>
        </g>
        <g transform="matrix(0.398366,0,0,0.398366,1833.27,683.133)">
            <circle cx="849.473" cy="506.469" r="81.607" style="fill:rgb(204,204,204);stroke:rgb(51,51,51);stroke-width:21.76px;"/>
        </g>
        <g transform="matrix(0.398366,0,0,0.398366,2123.22,1251.26)">
            <circle cx="849.473" cy="506.469" r="81.607" style="fill:rgb(255,215,72);stroke:rgb(51,51,51);stroke-width:21.76px;"/>
        </g>
        <g transform="matrix(0.398366,0,0,0.398366,1016.76,1251.26)">
            <circle cx="849.473" cy="506.469" r="81.607" style="fill:rgb(255,215,72);stroke:rgb(51,51,51);stroke-width:21.76px;"/>
        </g>
        <g transform="matrix(0.398366,0,0,0.398366,625.18,1251.26)">
            <circle cx="849.473" cy="506.469" r="81.607" style="fill:rgb(255,215,72);stroke:rgb(51,51,51);stroke-width:21.76px;"/>
        </g>
        <g transform="matrix(0.398366,0,0,0.398366,821.932,1251.26)">
            <circle cx="849.473" cy="506.469" r="81.607" style="fill:rgb(255,215,72);stroke:rgb(51,51,51);stroke-width:21.76px;"/>
        </g>
        <g transform="matrix(0.398366,0,0,0.398366,821.932,1447.86)">
            <circle cx="849.473" cy="506.469" r="81.607" style="fill:rgb(255,141,129);stroke:rgb(51,51,51);stroke-width:21.76px;"/>
        </g>
        <g transform="matrix(0.866915,0,0,0.866915,125.615,552.877)">
            <text x="110.371px" y="404.445px" style="font-family:'OpenSans-Bold', 'Open Sans', sans-serif;font-weight:700;font-size:60px;">PRODUCTION</text>
        </g>
        <g transform="matrix(0.866915,0,0,0.866915,125.615,727.805)">
            <text x="255.215px" y="404.445px" style="font-family:'OpenSans-Bold', 'Open Sans', sans-serif;font-weight:700;font-size:60px;">ST<tspan x="318.818px 359.014px 402.461px " y="404.445px 404.445px 404.445px ">AGI</tspan>NG</text>
        </g>
        <g transform="matrix(0.866915,0,0,0.866915,125.615,924.381)">
            <text x="161.933px" y="404.445px" style="font-family:'OpenSans-Bold', 'Open Sans', sans-serif;font-weight:700;font-size:60px;">GIT MASTER</text>
        </g>
        <g transform="matrix(0.866915,0,0,0.866915,125.64,1120.98)">
            <text x="245.81px" y="404.445px" style="font-family:'OpenSans-Bold', 'Open Sans', sans-serif;font-weight:700;font-size:60px;">DEVEL<tspan x="429.121px 476.875px " y="404.445px 404.445px ">OP</tspan></text>
        </g>
        <g transform="matrix(0.866915,0,0,0.866915,125.64,1317.58)">
            <text x="257.5px" y="404.445px" style="font-family:'OpenSans-Bold', 'Open Sans', sans-serif;font-weight:700;font-size:60px;">FEA<tspan x="361.24px 395.986px " y="404.445px 404.445px ">TU</tspan>RE</text>
        </g>
    </g>
    <g transform="matrix(1,0,0,1,16.2546,0)">
        <path d="M225.97,394.334L3041.52,394.334" style="fill:none;stroke:rgb(238,238,238);stroke-width:41.67px;stroke-linecap:butt;"/>
    </g>
    <g transform="matrix(1.52127,0,0,1.52127,-134.959,-274.213)">
        <text x="245.091px" y="404.445px" style="font-family:'Hind-Bold', 'Hind';font-weight:700;font-size:43.823px;fill:rgb(0,71,194);">DEPARTMENT THEME ROADMAP</text>
    </g>
</svg>
